<svg version="1.1" viewBox="0.0 0.0 200.0 200.0" fill="none" stroke="none" stroke-linecap="square" stroke-miterlimit="10" xmlns:xlink="http://www.w3.org/1999/xlink" xmlns="http://www.w3.org/2000/svg"><clipPath id="p.0"><path d="m0 0l200.0 0l0 200.0l-200.0 0l0 -200.0z" clip-rule="nonzero"/></clipPath><g clip-path="url(#p.0)"><path fill="#000000" fill-opacity="0.0" d="m0 0l200.0 0l0 200.0l-200.0 0z" fill-rule="evenodd"/><path fill="#0000d3" d="m13.160105 113.16794l0 0c0 -47.95745 38.877197 -86.83464 86.83465 -86.83464l0 0c23.029976 0 45.116714 9.1486225 61.401367 25.433279c16.284653 16.284657 25.433273 38.371387 25.433273 61.401363l0 0c0 47.95746 -38.877197 86.834656 -86.83464 86.834656l0 0c-47.95745 0 -86.83465 -38.877197 -86.83465 -86.834656z" fill-rule="evenodd"/><path fill="#ffe4ba" d="m85.8997 13.713916l0 0c0 -7.5754333 6.3103104 -13.716536 14.094482 -13.716536l0 0c3.7380905 0 7.323082 1.4451308 9.966309 4.01748c2.6432343 2.5723495 4.1281815 6.0612044 4.1281815 9.699055l0 0c0 7.575433 -6.310318 13.7165365 -14.09449 13.7165365l0 0c-7.784172 0 -14.094482 -6.1411037 -14.094482 -13.7165365zm6.7542953 0c0 3.8451395 3.286316 6.9622393 7.340187 6.9622393c4.053879 0 7.3401947 -3.1170998 7.3401947 -6.9622393c0 -3.8451385 -3.286316 -6.962239 -7.3401947 -6.962239l0 0c-4.053871 0 -7.340187 3.1171002 -7.340187 6.962239z" fill-rule="evenodd"/><path fill="#ffe4ba" d="m79.82498 16.89553l0 0c0 -1.5191765 1.2315369 -2.7507124 2.7507095 -2.7507124l34.84504 0c0.72953033 0 1.429184 0.28980637 1.9450455 0.805665c0.5158615 0.51585865 0.80566406 1.2155132 0.80566406 1.9450474l0 11.002514c0 1.5191765 -1.2315369 2.7507114 -2.7507095 2.7507114l-34.84504 0l0 0c-1.5191727 0 -2.7507095 -1.231535 -2.7507095 -2.7507114z" fill-rule="evenodd"/></g></svg>