<svg xmlns="http://www.w3.org/2000/svg" width="48" height="48" viewBox="0 0 12.7 12.7">
  <path fill="#fff" d="M6.35 1.06c-1.44 0-1.62 0-2.18.03s-.95.11-1.29.25a2.6 2.6 0 0 0-.93.6 2.6 2.6 0 0 0-.61.94c-.14.34-.22.72-.25 1.29-.03.56-.03.74-.03 2.18 0 1.44 0 1.62.03 2.18s.11.95.25 1.29a2.6 2.6 0 0 0 .6.93 2.6 2.6 0 0 0 .94.61c.34.14.72.22 1.29.25.56.03.74.03 2.18.03 1.44 0 1.62 0 2.18-.03s.95-.11 1.29-.25a2.59 2.59 0 0 0 .93-.6 2.6 2.6 0 0 0 .61-.94c.13-.34.22-.72.25-1.29.03-.56.03-.74.03-2.18 0-1.44 0-1.62-.03-2.18a3.9 3.9 0 0 0-.25-1.29 2.6 2.6 0 0 0-.6-.93 2.59 2.59 0 0 0-.94-.61 3.88 3.88 0 0 0-1.29-.25 37.9 37.9 0 0 0-2.18-.03zM5.88 2h.47c1.41 0 1.58 0 2.14.03.51.03.8.11.98.18.25.1.42.21.61.4a1.64 1.64 0 0 1 .4.6c.07.2.15.48.18.99.02.56.03.73.03 2.14 0 1.41 0 1.58-.03 2.14-.03.51-.11.8-.18.98a1.64 1.64 0 0 1-.4.6 1.64 1.64 0 0 1-.6.4c-.2.07-.48.16-1 .18-.55.03-.72.04-2.13.04s-1.58-.01-2.14-.04c-.51-.02-.8-.1-.98-.18a1.64 1.64 0 0 1-.6-.4 1.64 1.64 0 0 1-.4-.6 2.94 2.94 0 0 1-.19-.98c-.02-.56-.03-.73-.03-2.14 0-1.42 0-1.58.03-2.14.03-.52.11-.8.18-.98a1.64 1.64 0 0 1 .4-.61 1.64 1.64 0 0 1 .61-.4c.19-.07.47-.16.98-.18.5-.02.68-.03 1.67-.03zm3.3.88a.64.64 0 1 0 0 1.27.64.64 0 0 0 0-1.27zm-2.83.74a2.72 2.72 0 1 0 0 5.44 2.72 2.72 0 0 0 0-5.44zm0 .96a1.76 1.76 0 1 1 0 3.52 1.76 1.76 0 0 1 0-3.52z"/>
</svg>
