<svg xmlns="http://www.w3.org/2000/svg" viewBox="0 0 267.6 46.3"><g font-weight="400"><g color="#46464C" aria-label="MoOSHImITY" font-family="Deanna" font-size="75.2" style="line-height:1.25;-inkscape-font-specification:Deanna"><path fill="#46464C" stroke="#46464C" d="m0 6.5 1 .1h1.1l7.3.3 3 5.8q3.7 3.8 5.2 6.7l1.2 1.2h.5q1.9-.6 4-2.8 2.9-3.8 6-6.7l7 3.2q2.1.4 2.1 1.6L38 34.1v3.2l-.3 1.8.1.5-.1.8v1.2q0 4.5-.8 4.7h-.1l-7.6-2.7v-.4l-1-18.8q-1.1 1.8-2.5 7.8-.9.8-2 4.8l-2.4 4.8-5 .6-3.5-6q-2-3.5-2.8-4.2l-.2.2h-.1l.1.8V40q0 .8-1 1.2L2 42.6l-.6-1v-1.2l.2-.7-.2-1v-7.3Q1 21.1.4 17.2V15L0 6.6Zm57.5.4c-1.1 0-1.7.2-1.7.4-2.2 0-6 2-11 5.6-4 1.7-5.5 2.3-5.5 4.6v6c0 1.2 1.8 4.3 5.6 9.4a26 26 0 0 0 6.8 8h1.7c2.4 0 6.4-1.2 12-3.7 1-1.3 1.8-5.6 4.4-13l.2-4.6c0-1.3-.1-1.8-5.5-7.8-1-1.5-2.8-2.5-4.5-4.4zm-7.1 7c.5 0 1 .5 1.3 1L52 17c.2.2.2 1.3.2 2.2-.3.1-.3 0-1.1.8l-1.4 1.2a4 4 0 0 1-1.9 0c-.7-.1-.6-.1-.2-.9A10 10 0 0 0 49 16c.1-1 .3-1.4.7-1.8.2-.2.4-.2.6-.2zm11.5-.4c1.2.7 1 2 1.3 3.1 0 1.5.4 2.4.5 3.1.3 1.3.3.4.4 2-.1 1.4-.2 2.3-1.8 2-1-.2-2-1.7-2.5-2.3-.2-.6-.9-2-1-2.8 0-.5 0-.5.3-.8.4-.6 1-1.6 1-2 1-1.5 1-2.3 1.8-2.3zm-7 7H56c.8.3 1.8.9 2.5 1.6.6.6 2 2.4 2 3.3 0 .4.5 2 .4 4.3 0 2.4-.1 2.6-.8 3.8-.3.6-1 1.7-2 1.4-.4-.3-.4-.3-.4-1.2l-.1-1-.3-1.6c-.2-1.8-.1-.7-.6-2.9-.3-1.2-.8-1.4-1.7-1.5h-1.8c-1.2.7-1.4 1.9-1.7 2.8-.6 1-.5.9-.7 1.7-.2 1-.9 2.1-1 2.8-.4.6-.4.7-.9.7-.4 0-.4-.1-.5-.4-.3-.6-.3-1.3-.2-2.6.3-2.4.1-3.3.7-5 .6-2.8.4-1.3 1.5-3.8.2-.7.5-1 .8-1.1.6-.2 1.7-1.1 2.3-1.3h1.3zm36.7-12c-5.1.5-8 .9-8.4 1.4-.8 0-2.7.6-5.8 2a10 10 0 0 0-5 2c-.8 0-1.4 4.6-1.7 14a22 22 0 0 1 3.5 4.5l5.3 4.2c3.2 2 5.4 3 6.7 3 0 .4 1 .7 3 1.1l.1.2h.4l4.7-1.5 2.1-2.8c.5-2 1.6-4.2 3.4-6.7l2.6-5c0-.3.3-1 .9-1.8v-3.8c0-.5-.4-1.3-1.1-2.1 0-1-1.5-2.4-4.6-4.2 0-.2-2-1.7-6-4.5zM90 11.2l.5.2a23 23 0 0 1 2.4 2.7c.9 1.6.9.8 1.1 1.5.4.8.4 1.8.7 2.7a5 5 0 0 1 .7 2.2c-.2 1.6-.6 1.5-2 3.1-.8.5-1.5.7-2.5.8a7.3 7.3 0 0 1-1.5-2.6c-1.3-2.2-1.5-1-1.6-2.6a9 9 0 0 1 .8-3.8c.4-1 .8-2.6.9-3.3 0-.7.2-.9.5-.9zM82.4 14c.5 0 0 .5.4 2 0 1.7.1 2 .6 2.9.3.6.3.8.3 1.2-.2 1.3-.4.8-1.5 2.2-.5.7-1 1.7-2 2-.6-.2-.6-.6-.8-.8-.5-.8-.6-1.4-.6-2.7 0-1.3.2-2.2.8-3.5.3-1 .4-.8.8-1.6a4 4 0 0 1 1.7-1.7h.3zm3.5 6.8c.2 0 .5 0 .6.2a5 5 0 0 1 2 1.9c.7 1.1 1.2 2.6 1.6 3.6.4 1 .4 1.7.6 2.4.3 1.2.3 1.4.2 2.9-.1 1.5.3 1.4-.2 2.1-.4.5-.3.8-.7.6-.3-.2-.8-.8-1.4-2a13 13 0 0 0-.9-1.6c-.1-.4-.3-.7-1.3-1-1.1 0-1.2 1-1.5.9-.3.5-.7 1-1 2-.2.4-.4 1-.7 1.3a2 2 0 0 1-1 .8c-.7 0-1-.8-1.3-1.4v-1.3c0-2 .4-3.1 1-5 0-.7.7-2.5 1.2-3.3.7-1.5 1.2-2 2.2-2.8l.6-.3z"/><path fill="#46464C" stroke="#46464C" d="m108.6 7.2 3.8.2h4.2q.8 0 4 1 2.5.3 2.5.8 0 .7-.9 3.2v.2l.2.5-.9 3 .2.5q-.6 2-.9 2.2-5.2-1-5.2-1.5.1-1.6.5-2.7l-4.1-.4h-.9q-.5.2-.5 1.3v.3q0 3.6 2.4 6l.6.5h4.5q.5 0 1.6.7.4 0 1.7 1.9.4 0 1.6 2.3.4.8.4 2.7v.8q0 4.2-1.3 5l-3.8 5.5-12.7-.8v-.2l-.2.2h-.1q-.3 0-.6-1-2.1-1-2.1-1.9.4-.5 1.9-7.2V30h1.5q4.9.3 4.9 1-1.2 2.3-1.2 2.7 1.8.8 4 .8h.7q1.7-1 1.7-2.9v-.4l-.1-2.9h-1l-5.6.5q-4.5-4.4-4.5-4.7v-1.3l-.3-.4v-1.6l-.3-.4v-.7q0-5.3-.8-9.3l-.2-.1v-.2q.7-.6 2-1.1 0-.3 1.7-1.6l.2.2h.1q1.3-.3 1.3-.5zM142.7 5h3.6l.4.4v8.1l.3 9.7v8.5q0 3.5-.6 3.5-1.2 0-8.3 1.7h-1q-.3 0-.9-5.6l-.4-2v-.5l-.7-.1h-1.3q-1.2 0-2 1V36q0 .8-3.4 1-2 .6-3.9.7l-.3-.5.9-27.1V7.5q.2-1.6.7-1.6l11.3.3.1.1v.2l-1.7 10.8h.1q1.2-.5 3.6-2.5v-.3l-.3-.4V5.6q0-.5 3.8-.6zm6.6.9h1.2l11.2.6h1.2l.5.5v3.6l-.7 7.5v.9l.4 10.7V38q-.5 2.5-1.9 2.5h-.2l-8.2-.2-2.5.2-1.6-.9-.9-29V8q0-1 1.5-2.2zM194.2 7l7.7 3.6q2.4.4 2.4 1.7l-.5 20.4v3.5l-.4 2 .2.5-.2.9v2.6q0 .4-.4.4l-8.8.6-.1-.6q-.6-13-1-13v-.9q0-4.6-.5-6.2h-.2l-2.5 8.4q-.6 1-2.2 5.7-1.6 3.7-2.2 3.7l-4.3.5h-.2l-.2.2h-.1l-6-9.8h-.3l-.1.2h-.2l.2.9V40q-.2 1.5-2.2 1.5l-4.2 1q-1.1-.7-1.1-1v-.3q-.9-11.8-2-20l-.4-6.7q-.3-.9-.5-4l.5-.6.2-.2h.5l.5.3h9.4q3.5 0 3.5 1.3l3.3 5.8.7.6q1 0 3.3-1.6.5-.2 7.2-8.2zM219 6h-1.2l-11.2.6h-1.2l-.5.5v3.7l.4 6.6v12.8l-.1 8.8c.3 1.7.9 2 1.8 2h.2l5.2.1 6.4.3 1-1.2.4-26.8.4-5.2c0-.7-.6-1.4-1.6-2.3zm14.6-6h6.4q1.4 0 1.6 1.3l-.3 11.8.2 4-.6.5h-1.5q-.5-.4-1-.4v2.3q-.8 6.5-.8 9.7l-.4.3v2.3q-.7 3.8-1.8 3.8l-.2.2h-2.9q-6.5 0-6.5-1.6l-.1-.5V17.4q0-.8-1-1.3h-1.8q-1.6-1.1-1.6-5.2l-.3-9.6q.3-1 1.2-1l4.7.4h.8q4.8-.3 6-.7zm23.6 5.6 2.6.5h.4q4.3 0 7.4 1.3v.9l-4.1 7.9q0 .7-1 .7-2.5 5.7-2.5 6.4v1.4l-.4.4 1.5 15.2v.7l-.2.2h-1.7l-3.5-.4h-.2l-4 .2q-1-.8-1.4-3.4l.2-1.8-.2-3.7.4-8.1-.8-1.4.3-.2h.1q-4.1-6.7-5.9-10.4-.7 0-1.5-1.2l-.7-.9v-.4q1.1-2.2 2.4-3.4h.5l1.5.4 5-.2q1.8 0 2.4 6.5.5 0 1 4.4h.2q.5 0 1-6.4l-.1-.2q.7-5 1.3-5z"/></g><path stroke="#46464C" stroke-width=".2" d="M261.7 37v.4h.8v2h.4v-2h.7V37zm2.4 0v2.4h.4v-1.8l.8 1.6h.2l.8-1.6v1.8h.3V37h-.4l-.8 1.6-.8-1.6z" aria-label="TM" font-family="Montserrat" font-size="3.4" letter-spacing=".2" style="line-height:0;-inkscape-font-specification:Montserrat"/></g></svg>