<svg xmlns="http://www.w3.org/2000/svg" height="20" width="20"><path style="color:#000;font-style:normal;font-variant:normal;font-weight:400;font-stretch:normal;font-size:medium;line-height:normal;font-family:sans-serif;font-variant-ligatures:normal;font-variant-position:normal;font-variant-caps:normal;font-variant-numeric:normal;font-variant-alternates:normal;font-variant-east-asian:normal;font-feature-settings:normal;font-variation-settings:normal;text-indent:0;text-align:start;text-decoration:none;text-decoration-line:none;text-decoration-style:solid;text-decoration-color:#000;letter-spacing:normal;word-spacing:normal;text-transform:none;writing-mode:lr-tb;direction:ltr;text-orientation:mixed;dominant-baseline:auto;baseline-shift:baseline;text-anchor:start;white-space:normal;shape-padding:0;shape-margin:0;inline-size:0;clip-rule:nonzero;display:inline;overflow:visible;visibility:visible;isolation:auto;mix-blend-mode:normal;color-interpolation:sRGB;color-interpolation-filters:linearRGB;solid-color:#000;solid-opacity:1;vector-effect:none;fill:#000;fill-opacity:1;fill-rule:nonzero;stroke:none;stroke-width:2;stroke-linecap:butt;stroke-linejoin:miter;stroke-miterlimit:4;stroke-dasharray:none;stroke-dashoffset:0;stroke-opacity:1;color-rendering:auto;image-rendering:auto;shape-rendering:auto;text-rendering:auto;enable-background:accumulate;stop-color:#000" d="M9.188 0A2.45 2.45 0 0 0 6.75 2.437v1.625A2.45 2.45 0 0 0 9.188 6.5h1.624a2.45 2.45 0 0 0 2.438-2.438V2.437A2.45 2.45 0 0 0 10.812 0z"/><path style="fill:#000;fill-opacity:1;stroke-width:1.5;stroke-linecap:round;stroke-linejoin:round" d="M3 6a1 1 0 0 0-1 1v5a1 1 0 0 0 1 1h3v5a1 1 0 0 0 1 1h1.875a1 1 0 0 0 1-1v-3.875A.125.125 0 0 1 10 14a.125.125 0 0 1 .125.125V18a1 1 0 0 0 1 1H13a1 1 0 0 0 1-1v-5h3a1 1 0 0 0 1-1V7a1 1 0 0 0-1-1h-3.357a3.444 3.444 0 0 1-2.83 1.5H9.187A3.444 3.444 0 0 1 6.357 6z"/></svg>