<svg xmlns="http://www.w3.org/2000/svg" height="20" width="20"><path style="fill:#000;fill-opacity:1;stroke:none;stroke-width:1px;stroke-linecap:butt;stroke-linejoin:miter;stroke-opacity:1" d="m4.526 4.158-1.577.526A1.387 1.387 125.783 0 0 2 6v3a.737.737 36.38 0 0 .955.704L5.223 9v6a1 1 45 0 0 1 1h7.554a1 1 135 0 0 1-1V9l2.268.704A.737.737 143.62 0 0 18 9V6a1.387 1.387 54.217 0 0-.949-1.316l-1.577-.526A3.081 3.081 9.217 0 0 14.5 4h-1c-.276 0-.493.232-.59.489C12.582 5.357 11.404 6 10 6c-1.404 0-2.582-.643-2.91-1.511C6.993 4.232 6.776 4 6.5 4h-1a3.081 3.081 170.783 0 0-.974.158z"/></svg>