<svg xmlns="http://www.w3.org/2000/svg" height="20" width="20"><path d="M10 2a8 8 0 1 0 0 16 8 8 0 0 0 0-16zM7.5 5a1.5 1.5 0 1 1 0 3 1.5 1.5 0 0 1 0-3zm5 0a1.5 1.5 0 1 1 0 3 1.5 1.5 0 0 1 0-3zM6.023 9.855h8a1 1 0 0 1 1 1c0 2.75-2.25 5-5 5s-5-2.25-5-5a1 1 0 0 1 1-1zm1.413 2c.436 1.113 1.311 2 2.587 2 1.277 0 2.151-.887 2.588-2z" style="fill:#0a0000;fill-opacity:1;stroke:none;stroke-width:2;stroke-linecap:round;stroke-linejoin:round;stroke-miterlimit:4;stroke-dasharray:none;stroke-opacity:1"/></svg>