<svg xmlns="http://www.w3.org/2000/svg" xmlns:xlink="http://www.w3.org/1999/xlink" width="32" height="32" viewBox="0 0 8.47 8.47"><path fill="#000" d="M7.4 4.76a.4.4 0 0 0-.39.4v.72a.6.6 0 0 1-.6.6h-.56l.25-.25a.4.4 0 0 0 0-.56.4.4 0 0 0-.56 0l-.93.93a.4.4 0 0 0 0 .56l.93.93a.4.4 0 0 0 .56 0 .4.4 0 0 0 0-.56l-.25-.25h.56c.76 0 1.4-.63 1.4-1.4v-.72a.4.4 0 0 0-.4-.4ZM3.05.26a.4.4 0 0 0-.28.12.4.4 0 0 0 0 .56l.25.25h-.55c-.77 0-1.4.63-1.4 1.4v.72a.4.4 0 0 0 .4.4.4.4 0 0 0 .4-.4v-.72c0-.34.26-.6.6-.6H3l-.25.24a.4.4 0 0 0 0 .56.4.4 0 0 0 .56 0l.93-.92a.4.4 0 0 0 0-.56L3.32.38a.4.4 0 0 0-.28-.12ZM.79 4.23a.4.4 0 0 0-.39.45l.26 1.99a.4.4 0 0 0 .4.34h1.59a.4.4 0 0 0 .39-.34l.26-1.99a.4.4 0 0 0-.39-.45Zm.46.8h1.2L2.3 6.22h-.9ZM.4 7.28a.4.4 0 0 0-.4.4.4.4 0 0 0 .4.39h2.9a.4.4 0 0 0 .4-.4.4.4 0 0 0-.4-.4ZM5.56.4a.4.4 0 0 0-.4.45l.27 1.98a.4.4 0 0 0 .39.35h1.59a.4.4 0 0 0 .4-.35L8.06.85a.4.4 0 0 0-.4-.45Zm.45.8h1.2l-.15 1.18h-.9Zm-.85 2.24a.4.4 0 0 0-.4.4.4.4 0 0 0 .4.4h2.91a.4.4 0 0 0 .4-.4.4.4 0 0 0-.4-.4Z"/></svg>