<svg xmlns="http://www.w3.org/2000/svg" xmlns:xlink="http://www.w3.org/1999/xlink" width="32" height="32" viewBox="0 0 8.47 8.47"><path fill="#000" d="M23.67 0a1.5 1.5 0 0 0-1.1.56L15.59 9.3 8.87 7.55a1.5 1.5 0 0 0-1.55.53L4.5 11.66v4.85l4.56-5.81 6.72 1.75a1.5 1.5 0 0 0 1.55-.51L23.66 4l4.11 5.86a1.5 1.5 0 1 0 2.46-1.73L24.96.63A1.5 1.5 0 0 0 23.67 0ZM1.5 0C.67 0 0 .67 0 1.5V24c0 .82.67 1.5 1.5 1.5h4.04c-.2-.31-.41-.62-.6-.95a3 3 0 0 1-.4-2.05H3v-21C3 .67 2.32 0 1.5 0ZM19 19c-2.19 0-4 1.8-4 4 0 2.19 1.81 4 4 4 2.2 0 4-1.81 4-4 0-2.2-1.8-4-4-4zm0-5c-4.36 0-9.14 2.2-12.78 8.22a1.5 1.5 0 0 0 0 1.55C9.86 29.8 14.64 32 19 32c4.36 0 9.14-2.2 12.79-8.23a1.5 1.5 0 0 0 0-1.55C28.14 16.2 23.36 14 19 14zm0 3c3.18 0 6.45 1.54 9.5 6-3.05 4.46-6.32 6-9.5 6-3.18 0-6.45-1.54-9.5-6 3.05-4.46 6.32-6 9.5-6z" transform="scale(.26458)"/></svg>