<svg xmlns="http://www.w3.org/2000/svg" xmlns:xlink="http://www.w3.org/1999/xlink" width="32" height="32" viewBox="0 0 8.47 8.47"><path fill="#000" d="M23.67 0a1.5 1.5 0 0 0-1.1.56L15.59 9.3 8.87 7.55a1.5 1.5 0 0 0-1.55.53L4.5 11.66v4.85l4.56-5.81 6.72 1.75a1.5 1.5 0 0 0 1.55-.51L23.66 4l4.11 5.86a1.5 1.5 0 1 0 2.46-1.73L24.96.63A1.5 1.5 0 0 0 23.67 0zM22 12c-.54 0-1.08.13-1.57.38l-6.76 3.5A3.01 3.01 0 0 0 12 18.35c-.03 2.37 0 4.77 0 7.15 0 1.1.67 2.1 1.66 2.62l6.76 3.5c.98.5 2.16.5 3.14 0l6.76-3.5a2.99 2.99 0 0 0 1.66-2.62c-.02-2.38.03-4.8 0-7.16a3.01 3.01 0 0 0-1.66-2.46l-6.76-3.5A3.42 3.42 0 0 0 22 12Zm0 2.7c.2 0 .39.04.55.12l5.71 2.96c.33.17.49.44.49.71 0 .27-.16.54-.33.63l-5.87 3.04c-.33.17-.77.17-1.1 0l-5.88-3.04c-.16-.09-.32-.36-.32-.63s.16-.54.49-.71l5.7-2.96c.17-.08.36-.12.56-.12zM1.5 0C.67 0 0 .67 0 1.5V24c0 .82.67 1.5 1.5 1.5h9.01v-3H3v-21C3 .67 2.32 0 1.5 0Z" transform="scale(.26458)"/></svg>