<svg xmlns="http://www.w3.org/2000/svg" xmlns:xlink="http://www.w3.org/1999/xlink" width="32" height="32" viewBox="0 0 8.47 8.47"><path fill="#000" d="M18.68.04a4.22 4.22 0 0 0-4.13 4.25v1.33a3 3 0 0 1 2.16 3.24l-.22 1.77c.64.42 1.38.67 2.2.67h2.63c2.3 0 4.13-1.96 4.13-4.26V4.3A4.2 4.2 0 0 0 21.32.05zm0 3h2.64c.6 0 1.13.5 1.13 1.25v2.75c0 .75-.53 1.26-1.13 1.26h-2.64c-.6 0-1.13-.51-1.13-1.26V4.3c0-.75.53-1.26 1.13-1.26zm7.63 6.64a5.76 5.76 0 0 1-3.13 2.78 1.5 1.5 0 0 0 .77.21h5.08v6.66h-3.76a1.5 1.5 0 0 0-1.5 1.5v8.14H21.5v-5.4a1.5 1.5 0 0 0-1.5-1.49 1.5 1.5 0 0 0-1.5 1.5v5.39h-2.27V25.9a3 3 0 0 1-.73.09h-2.26v4.46a1.5 1.5 0 0 0 1.5 1.5h4.28a1.5 1.5 0 0 0 .98-.37 1.5 1.5 0 0 0 .99.37h4.28a1.5 1.5 0 0 0 1.5-1.5v-8.14h3.76a1.5 1.5 0 0 0 1.5-1.5v-9.64a1.5 1.5 0 0 0-1.5-1.5ZM3.27 7a1.5 1.5 0 0 0-1.48 1.68l1.18 9.78a1.5 1.5 0 0 0 1.48 1.32h8.1a1.5 1.5 0 0 0 1.48-1.32l1.18-9.78A1.5 1.5 0 0 0 13.73 7zm1.7 3h7.06l-.81 6.78H5.79ZM1.5 21.5A1.5 1.5 0 0 0 0 23a1.5 1.5 0 0 0 1.5 1.5h14A1.5 1.5 0 0 0 17 23a1.5 1.5 0 0 0-1.5-1.5z" transform="scale(.26458)"/></svg>