<svg xmlns="http://www.w3.org/2000/svg" xmlns:xlink="http://www.w3.org/1999/xlink" width="32" height="32" viewBox="0 0 8.47 8.47"><path fill="#000" d="M5.95 3.84v2.78h.8V3.84Zm-4.23 0v2.78h.8V3.84ZM.4 3.44v.8h2.72a1.17 1.17 0 0 1-.08-.4c0-.14.03-.28.08-.4zm4.95 0a1.17 1.17 0 0 1 0 .8h2.72v-.8Zm-1.13-.4a.8.8 0 0 0-.78.8.8.8 0 0 0 .4.68v.77a.4.4 0 0 0 .4.4.4.4 0 0 0 .4-.4v-.77a.8.8 0 0 0 .39-.68.8.8 0 0 0-.8-.8.8.8 0 0 0-.01 0zM1.9 1.46A1.9 1.9 0 0 0 0 3.36v3.26a.4.4 0 0 0 .4.4h7.67a.4.4 0 0 0 .4-.4V3.35a1.9 1.9 0 0 0-1.9-1.9zm0 .79h4.67c.61 0 1.1.49 1.1 1.1v2.87H.8V3.35c0-.61.5-1.1 1.1-1.1z"/></svg>