<svg xmlns="http://www.w3.org/2000/svg" xmlns:xlink="http://www.w3.org/1999/xlink" width="32" height="32" viewBox="0 0 8.47 8.47"><path fill="#000" d="M1.74-.61a.34.34 0 0 0-.3.23L1.08.8l-1.17.37a.34.34 0 0 0-.1.6l1 .7L.8 3.68a.34.34 0 0 0 .53.28l.98-.74 1.16.4a.34.34 0 0 0 .43-.43l-.4-1.16.74-.98a.34.34 0 0 0-.27-.54L2.74.53l-.7-1a.34.34 0 0 0-.3-.14zM1.88.47l.41.6a.34.34 0 0 0 .28.13h.72l-.43.57a.34.34 0 0 0-.05.31l.24.68-.69-.23a.34.34 0 0 0-.3.05l-.58.43V2.3a.34.34 0 0 0-.14-.28L.75 1.6l.7-.22a.34.34 0 0 0 .22-.22ZM6.06 3.2a.94.94 0 0 1-1.33-.02l-.44-.44a.94.94 0 0 1-.02-1.33L4.69 1A.94.94 0 0 1 6 1l.44.44c.36.36.39.96.02 1.33zm-.48-.47L6 2.3c.1-.1.1-.26-.02-.38l-.44-.43c-.12-.12-.28-.12-.38-.02l-.41.41c-.1.1-.1.26.02.38l.43.44c.12.12.29.11.38.02zM5.73.48a1.29 1.29 0 0 0-.85.06.34.34 0 0 1 0-.2l.8-.8L4.64-1.5l-.6.6a.34.34 0 0 1-.47-.01l-1.3-1.3-.36.38.85.85c.13.13.14.34.01.47a.34.34 0 0 1-.36 0l-.1-.15a.68.68 0 0 0-.43-.28l-.43-.43-.37.37.23.22a.67.67 0 0 0-.2.3l-.1.34-.63-.64a.34.34 0 0 1-.02-.48l.68-.67a.32.32 0 0 1 .22-.1c0-.08.03-.16.09-.21l.67-.68a.34.34 0 0 1 .48.01l1.28 1.3.6-.6a.34.34 0 0 1 .48 0L6.39-.68c.13.14.14.35.01.48z" transform="scale(1.186 -1.17893) rotate(45 8.98 -.69)"/></svg>