<svg xmlns="http://www.w3.org/2000/svg" viewBox="0 0 20 20"><path fill="#fff" d="M15 9.977a1 1 0 0 0-1 1V14h-3.023a1 1 0 0 0-1 1 1 1 0 0 0 1 1H14v3.023a1 1 0 0 0 1 1 1 1 0 0 0 1-1V16h3.023a1 1 0 0 0 1-1 1 1 0 0 0-1-1H16v-3.023a1 1 0 0 0-1-1ZM4 0C1.803 0 0 1.803 0 4v12c0 2.197 1.803 4 4 4h8.705a2.45 2.45 0 0 1-.205-.977V17.5h-1.523c-.346 0-.675-.074-.977-.205V18H6v-4H2v-4h4V6H2V4c0-1.116.884-2 2-2h2v4h4V2h4v4h4v4h-.705c.131.302.205.631.205.977V12.5h1.523c.345 0 .676.074.977.205V4c0-2.197-1.803-4-4-4Zm10 6h-4v4h2.705A2.557 2.557 0 0 1 14 8.695Zm-4 4H6v4h2.695A2.557 2.557 0 0 1 10 12.705Zm9.736 7.38a2.41 2.41 0 0 1-.713.12H17.5v1.523c0 .249-.05.486-.12.713a4.015 4.015 0 0 0 2.356-2.355z" color="#000"/></svg>