<svg xmlns="http://www.w3.org/2000/svg" xmlns:xlink="http://www.w3.org/1999/xlink" viewBox="0 0 20 20"><!--<defs><linearGradient id="a"><stop offset="0" stop-color="#f39b00"/><stop offset="1" stop-color="#ffc200"/></linearGradient><linearGradient xlink:href="#a" id="b" x1="10" x2="10" y1="20" y2="0" gradientUnits="userSpaceOnUse"/></defs>--><path fill="#f39b00" d="M17.06 2.92a10 10 0 0 0-14.13 0 10 10 0 0 0 0 14.15 10 10 0 0 0 14.14 0 10 10 0 0 0 0-14.14 10 10 0 0 0-.01-.01zm-1.4 1.42a8 8 0 0 1 0 11.32 8 8 0 0 1-11.32 0 8 8 0 0 1 0-11.32 8 8 0 0 1 11.32 0zm-2.12 9.2a5 5 0 0 1-7.08 0 5 5 0 0 1 0-7.08 5 5 0 0 1 7.08 0 5 5 0 0 1 0 7.08"/></svg>