<svg xmlns="http://www.w3.org/2000/svg" viewBox="0 0 20 20"><path d="M10 0c-.54 0-1.08.13-1.58.38l-6.76 3.5A3.01 3.01 0 0 0 0 6.35c-.03 2.37 0 4.77 0 7.15a3 3 0 0 0 1.66 2.62l6.76 3.5c1 .5 2.17.5 3.16 0l6.76-3.5A2.99 2.99 0 0 0 20 13.5c-.01-2.38.04-4.8 0-7.16a3.01 3.01 0 0 0-1.66-2.46L11.58.38A3.43 3.43 0 0 0 10 0Zm0 2c.23 0 .46.06.66.16l6.76 3.5c.4.2.58.52.58.84 0 .32-.18.64-.38.74l-6.96 3.6c-.4.2-.92.2-1.32 0l-6.96-3.6c-.2-.1-.38-.42-.38-.74s.18-.64.58-.84l6.76-3.5c.2-.1.43-.15.66-.15Z" fill="#FFF"/></svg>