<svg xmlns="http://www.w3.org/2000/svg" viewBox="0 0 14 14"><path d="M2.4 5a.9.9 0 0 0-.89.74L.13 13.26c-.07.39.23.74.62.74h12.5c.4 0 .69-.35.62-.74l-1.38-7.52A.9.9 0 0 0 11.6 5H2.4zm7.62 1.25a.75.75 0 0 1 .41.13.75.75 0 0 1 .19 1.05l-3.5 5a.75.75 0 0 1-1.09.16l-2.5-2a.75.75 0 0 1-.12-1.06.75.75 0 0 1 1.06-.12l1.87 1.5 3.04-4.34a.75.75 0 0 1 .64-.32z"/><path fill="none" stroke="#000" stroke-linecap="round" stroke-linejoin="round" stroke-width="1.5" d="M4.25 3.5v-.2C4.25 1.9 5.48.75 7 .75S9.75 1.89 9.75 3.3v.2"/></svg>