<svg xmlns="http://www.w3.org/2000/svg" viewBox="0 0 20 20"><path fill="#00A9FE" d="M11.81.41a1 1 0 0 0-.73.3L9.32 2.46c-.39.4-.18.6.18.97a1 1 0 1 1-1.41 1.41c-.36-.36-.58-.57-.97-.18L.71 11.08a1 1 0 0 0 0 1.41l1.28 1.28c.2.2.5.2.73.04a2.5 2.5 0 0 1 3.47 3.47c-.15.23-.16.54.04.73L7.5 19.3a1 1 0 0 0 1.41 0l6.42-6.41c.39-.4.18-.6-.18-.97a1 1 0 1 1 1.41-1.41c.36.36.57.57.97.18l1.75-1.76a1 1 0 0 0 0-1.41L18 6.24c-.2-.2-.5-.2-.73-.04a2.5 2.5 0 0 1-3.47-3.47c.15-.23.16-.54-.04-.73L12.5.7a1 1 0 0 0-.68-.3Zm-1.25 4.5a1 1 0 0 1 .7 1.7 1 1 0 1 1-.7-1.7Zm1.77 1.76a1 1 0 0 1 .7 1.7 1 1 0 1 1-.7-1.7zm1.77 1.77a1 1 0 0 1 .7 1.7 1 1 0 1 1-.7-1.7z"/></svg>
