<svg xmlns="http://www.w3.org/2000/svg" viewBox="0 0 20 20"><path d="M-36 2a1 1 0 0 0-.99 1.14l1 7c.07.5.5.86.99.86h2.34a6 6 0 0 1 5.1-3.97l.55-3.89A1 1 0 0 0-28 2h-8zm-1 10a1 1 0 1 0 0 2h4.08a6 6 0 0 1-.08-1 6 6 0 0 1 .08-1H-37z"/><circle cx="13" cy="13" r="4.13" fill="none" stroke="#000" stroke-linecap="round" stroke-linejoin="round" stroke-width="1.75"/><path fill="none" stroke="#000" stroke-linecap="round" stroke-linejoin="round" stroke-width="1.75" d="M13 11v2l1.25 1.5"/><path d="M4 2a1 1 0 0 0-.99 1.14l1 7A1 1 0 0 0 5 11h2.34a6 6 0 0 1 1.19-2H5.87l-.72-5h5.7l-.52 3.63a6 6 0 0 1 2.1-.6L13 3.14A1 1 0 0 0 12 2ZM3 12a1 1 0 0 0-1 1 1 1 0 0 0 1 1h4.08A6 6 0 0 1 7 13a6 6 0 0 1 .08-1Z"/></svg>