<svg xmlns="http://www.w3.org/2000/svg" viewBox="0 0 20 20"><path d="M4 2a1 1 0 0 0-.99 1.14l1 7A1 1 0 0 0 5 11h1.25a1.9 1.9 0 0 1 1.22-.93A4.75 4.75 0 0 0 9.53 9H5.87l-.72-5h5.7l-.58 4.04c.08-.13.17-.27.23-.4.47-.96.5-1.73.5-1.73A2 2 0 0 1 12.87 4l.12-.87A1 1 0 0 0 12 2ZM3 12a1 1 0 0 0-1 1 1 1 0 0 0 1 1h4.68l-.21-.07A1.96 1.96 0 0 1 5.99 12Z"/><path fill="none" stroke="#000" stroke-linecap="round" stroke-linejoin="round" stroke-width="1.75" d="M13 18.01s.18-4.71 5.01-6.01C13.18 10.7 13 5.99 13 5.99S12.82 10.7 7.99 12C12.8 13.3 13 18.01 13 18.01z"/></svg>