<svg xmlns="http://www.w3.org/2000/svg" viewBox="0 0 20 20"><path d="M-40 2a1 1 0 0 0-.99 1.14l1 7c.07.5.5.86.99.86h1.25a1.9 1.9 0 0 1 1.22-.93 4.27 4.27 0 0 0 3.03-2.43c.47-.96.5-1.73.5-1.73A2 2 0 0 1-31.13 4l.12-.87A1 1 0 0 0-32 2Zm-1 10a1 1 0 1 0 0 2h4.68l-.21-.07A1.96 1.96 0 0 1-38.01 12Z" transform="translate(44)"/><path fill="none" stroke="#000" stroke-linecap="round" stroke-linejoin="round" stroke-width="1.75" d="M13 18.01s.18-4.71 5.01-6.01C13.18 10.7 13 5.99 13 5.99S12.82 10.7 7.99 12C12.8 13.3 13 18.01 13 18.01z"/></svg>