<svg xmlns="http://www.w3.org/2000/svg" viewBox="0 0 20 20"><path fill="none" stroke="#000" stroke-linecap="round" stroke-linejoin="round" stroke-width="1.75" d="M12.75 16.5s4.75-2.84 4.75-6.14A2.3 2.3 0 0 0 15.12 8c-1.9 0-2.37 1.89-2.37 1.89S12.27 8 10.37 8A2.3 2.3 0 0 0 8 10.36c0 3.3 4.75 6.14 4.75 6.14z"/><path d="M4 2a1 1 0 0 0-.99 1.14l1 7A1 1 0 0 0 5 11h1.05c-.02-.21-.05-.42-.05-.64 0-.47.1-.92.25-1.36h-.38l-.72-5h5.7l-.3 2.02a4.1 4.1 0 0 1 1.94.6l.5-3.48A1 1 0 0 0 12 2H4zM3 12a1 1 0 0 0-1 1 1 1 0 0 0 1 1h4.17c-.4-.6-.73-1.26-.94-2H3zM-16 2a1 1 0 0 0-.99 1.14l1 7c.07.5.5.86.99.86h1.05c-.02-.21-.05-.42-.05-.64A4.46 4.46 0 0 1-9.62 6c.83 0 1.52.27 2.11.63l.5-3.49A1 1 0 0 0-8 2h-8zm-1 10a1 1 0 1 0 0 2h4.17c-.4-.6-.73-1.26-.94-2H-17z"/></svg>