<svg xmlns="http://www.w3.org/2000/svg" xmlns:xlink="http://www.w3.org/1999/xlink" viewBox="0 0 6.35 6.35"><!--<defs><linearGradient id="a"><stop offset="0" stop-color="#dd0f18"/><stop offset="1" stop-color="#fc282a"/></linearGradient><linearGradient xlink:href="#a" id="b" x1="55.91" x2="55.91" y1="31.51" y2="25.42" gradientUnits="userSpaceOnUse"/></defs>--><path fill="#fc282a" d="M55.9 25.42a.6.6 0 0 0-.54.36l-.58 1.4-1.5.11a.6.6 0 0 0-.52.41.6.6 0 0 0 .18.64l1.15.98-.36 1.47a.6.6 0 0 0 .23.61.6.6 0 0 0 .66.03l1.29-.79 1.29.79c.21.13.48.1.65-.03a.6.6 0 0 0 .23-.61l-.35-1.47 1.15-.98a.6.6 0 0 0 .18-.64.6.6 0 0 0-.52-.4l-1.5-.13-.58-1.39a.6.6 0 0 0-.55-.36Z" transform="translate(-52.73 -25.3)"/></svg>