<svg xmlns="http://www.w3.org/2000/svg" viewBox="0 0 6.35 6.35"><path fill="#fff" d="M55.9 25.42a.6.6 0 0 0-.54.36l-.58 1.4-1.5.11a.6.6 0 0 0-.52.41.6.6 0 0 0 .18.64l1.15.98-.36 1.47a.6.6 0 0 0 .23.61.6.6 0 0 0 .66.03l1.29-.79 1.29.79c.21.13.48.1.65-.03a.6.6 0 0 0 .23-.61l-.35-1.47 1.15-.98a.6.6 0 0 0 .18-.64.6.6 0 0 0-.52-.4l-1.5-.13-.58-1.39a.6.6 0 0 0-.55-.36Z" color="#000" font-family="sans-serif" font-weight="400" overflow="visible" style="line-height:normal;font-variant-ligatures:normal;font-variant-position:normal;font-variant-caps:normal;font-variant-numeric:normal;font-variant-alternates:normal;font-variant-east-asian:normal;font-feature-settings:normal;font-variation-settings:normal;text-indent:0;text-align:start;text-decoration-line:none;text-decoration-style:solid;text-decoration-color:#000;text-transform:none;text-orientation:mixed;white-space:normal;shape-padding:0;shape-margin:0;inline-size:0;isolation:auto;mix-blend-mode:normal;solid-color:#000;solid-opacity:1" transform="translate(-52.73 -25.3)"/></svg>