<svg xmlns="http://www.w3.org/2000/svg" width="28" height="28" viewBox="0 0 7.408 7.408"><path style="fill:#fff;stroke:none;stroke-width:.529167;stroke-linecap:butt;stroke-linejoin:round;stroke-miterlimit:4;stroke-dasharray:none;stroke-opacity:1;fill-opacity:1" d="M5.292 3.983V.515a.25.25 45 0 0-.25-.25h-2.94a.604.604 157.5 0 0-.427.176L.441 1.675a.604.604 112.5 0 0-.176.427v2.675a.25.25 45 0 0 .25.25H2.66a.25.25 45 0 1 .25.25v1.617a.25.25 45 0 0 .25.25h1.088a.327.327 142.628 0 0 .316-.241l.662-2.428a1.867 1.867 97.628 0 0 .066-.492z"/><path style="fill:#fff;fill-opacity:1;stroke:none;stroke-width:.432063;stroke-linecap:round;stroke-linejoin:round;stroke-miterlimit:4;stroke-dasharray:none;stroke-opacity:1" d="M5.835 1.852h.808a.25.25 45 0 1 .25.25v1.881a.25.25 135 0 1-.25.25h-.808"/></svg>