<svg xmlns="http://www.w3.org/2000/svg" width="28" height="28" viewBox="0 0 7.408 7.408"><path style="fill:#fff;stroke:none;stroke-width:.52900003;stroke-linecap:butt;stroke-linejoin:round;stroke-miterlimit:4;stroke-dasharray:none;stroke-opacity:1;fill-opacity:1" d="M1.852 3.425v3.469a.25.25 45 0 0 .25.25h2.94a.604.604 157.5 0 0 .426-.177l1.234-1.234a.604.604 112.5 0 0 .177-.427V2.631a.25.25 45 0 0-.25-.25H4.483a.25.25 45 0 1-.25-.25V.515a.25.25 45 0 0-.25-.25H2.896a.327.327 142.628 0 0-.316.24l-.662 2.429a1.867 1.867 97.628 0 0-.066.491z"/><path style="fill:#fff;fill-opacity:1;stroke:none;stroke-width:.432063;stroke-linecap:round;stroke-linejoin:round;stroke-miterlimit:4;stroke-dasharray:none;stroke-opacity:1" d="M1.323 5.556H.515a.25.25 45 0 1-.25-.25V3.425a.25.25 135 0 1 .25-.25h.808"/></svg>