<svg xmlns="http://www.w3.org/2000/svg" xmlns:xlink="http://www.w3.org/1999/xlink" width="256" height="256"><style><![CDATA[.B{stroke:#000}.C{fill:none}.D{stroke-linejoin:round}.E{stroke-width:1.002}.F{stroke-opacity:.94}.G{stroke-width:2.984}]]></style><g stroke="#f49b00"><circle cy="39" cx="35" r="4.469" fill="#f49b00" stroke-width="1.062"/><circle cy="39" cx="35" r="9.52" stroke-width=".961" class="C"/></g><g stroke="#007b28" class="C"><path d="M10 32.457l-9.5 4v5l9.5 4 9.5-4v-5z"/><path d="M.254 36.457l9.746 4 9.576-4"/></g><path d="M0 36.457v5l10 4 10-4v-5l-10 4z" fill="#007b28"/><g stroke="#de000d" class="C"><path d="M53.5 48.5l1.5-7c2.94-1.697 7.04-1.7 10 0l1.5 7zm2.5-17l1 7h6l1-7c-3-.804-5.016-.8-8 0z" class="D"/><path d="M58.5 39.4h3"/></g><path d="M78 38.5h10zm0 3h7" stroke="#00a3da" class="C E"/><path d="M79.5 34v-2.5h15v9H92m-16.5 4v-9h15v9h-8l-4 3.5v-3.5z" stroke="#00a3da" class="C D E"/><path d="M12 .5a11.5 11.5 0 1 0 0 23 11.5 11.5 0 1 0 0-23zm3.508 5.63c.693.006 1.387.106 2.063.3.782 2.71.032 5.705-2.04 7.785-2.074 2.075-5.062 2.832-7.766 2.053-.782-2.71-.03-5.707 2.04-7.787 1.555-1.556 3.623-2.37 5.7-2.352z" fill="#419dda"/><circle cx="12" cy="12" r="11.5" class="B C D"/><path d="M12.298 11.69a.502.503 0 0 0-.711 0l-6.04 6.05a.502.503 0 1 0 .711.712l6.04-6.05a.502.503 0 0 0 0-.712zm6.04-6.053a.499.5 0 0 0-.185-.11C15.012 4.494 11.5 5.372 9.1 7.774c-2.397 2.408-3.27 5.93-2.235 9.077a.499.5 0 0 0 .318.318c3.14 1.033 6.652.154 9.052-2.247 2.397-2.408 3.27-5.93 2.235-9.077a.499.5 0 0 0-.133-.209zm-.766.793c.782 2.71.03 5.706-2.04 7.787-2.074 2.075-5.062 2.83-7.765 2.05-.782-2.71-.03-5.705 2.042-7.785 2.074-2.075 5.06-2.832 7.764-2.052z" dominant-baseline="auto"/><path d="M41 .5C34.65.5 29.5 5.65 29.5 12S34.65 23.5 41 23.5 52.5 18.35 52.5 12 47.35.5 41 .5zm.004 3.836c2.5 3.57 5.81 4.312 6.47 7.055.065.19-.02.384.022.588a4.14 4.14 0 0 1-4.139 4.139 4.11 4.11 0 0 1-2.352-.74 4.18 4.18 0 0 1-.711.387l1.412.004c.494 3.22 2.826 3.88 2.826 3.88l-7.06-.002s2.327-.66 2.82-3.88c-.504.22-1.055.354-1.64.354a4.14 4.14 0 0 1-4.139-4.139c.006-.203-.017-.398.023-.588.658-2.76 3.978-3.505 6.467-7.055z" fill="#da060a"/><g class="B C D"><circle cx="41" cy="12" r="11.5" stroke="#fff"/><path stroke="#fff" d="M41.005 4.336s-5.81 4.295-6.467 7.055c-.04.2-.017.385-.023.588a4.14 4.14 0 0 0 4.138 4.138 4.11 4.11 0 0 0 2.352-.739 4.11 4.11 0 0 0 2.352.739 4.14 4.14 0 0 0 4.138-4.138c-.043-.204.042-.4-.023-.588-.658-2.742-6.467-7.055-6.467-7.055z"/><path stroke="#fff" d="M40.294 15.764c-.494 3.222-2.822 3.88-2.822 3.88l7.06.003s-2.332-.658-2.826-3.88"/></g><path d="M70 .5a11.5 11.5 0 1 0 0 23 11.5 11.5 0 1 0 0-23zm0 6l2.5 3.75 4-1.5-1 6.75c-.093 1.057-2.52 2-5.5 2s-5.407-.943-5.5-2l-1-6.75 4 1.5z" fill="#f4a244"/><g class="C B"><g class="D"><circle cx="70" cy="12" r="11.5" stroke="#fff"/><path stroke="#fff" d="M70 6.5l-2.5 3.75-4-1.5 1 6.75c.093 1.057 2.52 2 5.5 2s5.407-.943 5.5-2l1-6.75-4 1.5z"/></g><g class="D"><path d="M43.354 61.646L50 55l6.647 6.647M44.5 60.5v6h11v-6"/><path d="M48.5 66.48V62.5h3v4.02m18-.02h-2v2h7v-2h-2v-7c-1.667.898-3.333 1.417-5 1.5v1.5h2z"/><circle cx="70.25" cy="55.75" r="2.25"/><circle cx="92" cy="61" r="5.5"/><path d="M91.5 57v4.5l3.5-1m15.624-2c-.198.387-.15.815-.15 1.25a2.75 2.75 0 1 0 5.5 0c0-.435.048-.863-.15-1.25h-.85l-1-1-1 1z"/><path d="M113.224 55.25a4.5 4.5 0 0 0-4.318 3.25h4.068l1-1 1 1h2.57a4.5 4.5 0 0 0-4.32-3.25zm1.864 6.5c-.5.456-1.14.74-1.863.74s-1.37-.28-1.86-.732c-2.13.645-3.7 2.367-3.865 4.732h11.47c-.155-2.374-1.743-4.1-3.88-4.74z"/></g></g><path d="M10 74h50v50z" fill="#fed52f"/><path d="M48.612 85.737l5.504.188-4.434 3.275 1.523 5.308-4.477-3.216-4.563 3.09 1.667-5.263-4.342-3.396 5.507-.037 1.88-5.2z" fill="#fff" stroke="#fff" stroke-width="2.986" class="D F"/><path d="M75 74h50v50z" fill="#fed52f"/><g fill="#f61415"><use xlink:href="#B" stroke="#f61415" class="D G"/><path d="M75 74l50 50v10L65 74z"/></g><path d="M145 74h50v50z" fill="#44b3ef"/><use xlink:href="#B" x="70" fill="#fff" stroke="#fff" class="D F G"/><path d="M3.002 143.735l7.05 7 7-7" stroke-width="2.135" class="B C"/><defs ><path id="B" d="M113.612 85.737l5.504.188-4.434 3.275 1.523 5.307-4.477-3.216-4.563 3.09 1.667-5.263-4.342-3.396 5.507-.037 1.88-5.2z"/></defs></svg>