<svg xmlns="http://www.w3.org/2000/svg" xmlns:xlink="http://www.w3.org/1999/xlink" viewBox="0 0 1045 218.66" width="100" height="100">
  <defs>
    <linearGradient id="a">
      <stop offset="0" stop-color="#0af"/>
      <stop offset="1" stop-color="#fff"/>
    </linearGradient>
    <linearGradient xlink:href="#a" id="b" x1="0" x2="0" y1="206.72" y2="147.16" gradientTransform="scale(.03696)" gradientUnits="userSpaceOnUse"/>
  </defs>
  <g stroke-width=".04">
    <path fill="#0af" d="M1.71.29.01 6.34a.4.4 69.34 0 0 .18.46L1.9 7.92a1.01 1.01 16.52 0 0 .55.16h3.66a.77.77 158.6 0 0 .52-.2l.42-.38.38.37a.74.74 22.17 0 0 .52.21H9.5a.35.35 139.54 0 0 .34-.3l.3-1.85 1.25 1.9a.56.56 28.3 0 0 .47.25h1.62a.33.33 137.67 0 0 .33-.3l.07-.79.69.86a.62.62 25.69 0 0 .48.23h6.3a.37.37 141.18 0 0 .37-.3l.29-1.3-.16-3.78a.31.31 43.85 0 0-.3-.3h-1.36l-.01-1.1a.3.3 44.64 0 0-.3-.3h-1.9a.3.3 135.36 0 0-.3.3l-.02 1.1h-3.64l-.38-1.12a.42.42 35.75 0 0-.4-.28h-1.72a.34.34 138.46 0 0-.34.3l-.13 1.1h-3L6.54.24A.58.58 27.3 0 0 6.05 0H2.1a.4.4 142.82 0 0-.38.29Zm21.6 0-.43 1.62a1.74 1.74 95.19 0 0-.06.59l.43 5.28a.32.32 42.71 0 0 .32.3h1.64a.52.52 150.2 0 0 .45-.26l.62-1.05.14 1.01a.34.34 41.23 0 0 .34.3h8.63a1.01 1.01 163.48 0 0 .55-.16l1.72-1.12a.4.4 110.66 0 0 .17-.46L36.76 2.5a1.05 1.05 58.41 0 0-.3-.5l-.88-.79a.77.77 21.23 0 0-.52-.2h-.58a.68.68 156.08 0 0-.5.22l-.38.42-.45-.43a.75.75 21.78 0 0-.52-.21h-3.57l-.11-.7a.35.35 40.45 0 0-.35-.3h-1.66a.46.46 146.97 0 0-.42.27l-.62 1.4L25.75.3a.33.33 41.96 0 0-.33-.3h-1.73a.4.4 142.48 0 0-.38.29z" color="#000" font-family="sans-serif" font-weight="400" overflow="visible" style="line-height:normal;font-variant-ligatures:normal;font-variant-position:normal;font-variant-caps:normal;font-variant-numeric:normal;font-variant-alternates:normal;font-variant-east-asian:normal;font-feature-settings:normal;font-variation-settings:normal;text-indent:0;text-align:start;text-decoration-line:none;text-decoration-style:solid;text-decoration-color:#000;text-transform:none;text-orientation:mixed;white-space:normal;shape-padding:0;shape-margin:0;inline-size:0;isolation:auto;mix-blend-mode:normal;solid-color:#000;solid-opacity:1" transform="scale(27.0549)"/>
    <path fill="#fff" d="M56.78 14.5 12.79 171.6a2.05 2.05 0 0 0 1.98 2.6h113.59a6.9 6.9 0 0 0 4.69-1.83L158.3 149a8.36 8.36 0 0 0 2.52-4.49l7.6-37.97a6.77 6.77 0 0 0-.91-4.94l-14.18-22.48a1.5 1.5 0 0 1 1.26-2.29h17.1a3.3 3.3 0 0 0 3.23-2.65l6.5-32.58a7 7 0 0 0-.86-4.98l-13.44-22.41a4.78 4.78 0 0 0-4.1-2.32H60.22a3.57 3.57 0 0 0-3.44 2.6zm585.32.09 12.57 156.93a2.93 2.93 0 0 0 2.92 2.7h42.2a2.43 2.43 0 0 0 2.42-2.7l-6.35-59.55a2.43 2.43 0 0 1 2.42-2.7h40.45a3.09 3.09 0 0 1 3.07 2.69l7.95 59.58a3.09 3.09 0 0 0 3.06 2.68H795a2.3 2.3 0 0 0 2.28-2.67l-25.1-156.99a3.17 3.17 0 0 0-3.13-2.67h-37.92a2.37 2.37 0 0 0-2.34 2.68l7.95 59.58a2.37 2.37 0 0 1-2.35 2.68h-39.61a3 3 0 0 1-3-2.69l-6.34-59.56a3 3 0 0 0-3-2.7H644.6a2.5 2.5 0 0 0-2.49 2.7zM313.68 41.63l-3.27 27.13a2.4 2.4 0 0 0 2.39 2.68h39.45a2.97 2.97 0 0 0 2.95-2.7l2.52-27.1a2.47 2.47 0 0 0-2.46-2.7h-38.55a3.05 3.05 0 0 0-3.03 2.69zm176.3.02-1.72 129.86a2.67 2.67 0 0 0 2.67 2.7h18.36a5.93 5.93 0 0 0 4.48-2.04l19.92-22.96a1.03 1.03 0 0 1 1.8.66l.3 21.64a2.74 2.74 0 0 0 2.75 2.7h42.2a2.6 2.6 0 0 0 2.6-2.7l-1.06-27.09a2.81 2.81 0 0 0-2.81-2.7h-18a1.28 1.28 0 0 1-.98-2.09l18.85-22.88a7.08 7.08 0 0 0 1.61-4.79l-1.31-32.48a2.82 2.82 0 0 0-2.81-2.7h-17.1a5.71 5.71 0 0 0-4.42 2.1l-18.72 22.86a.99.99 0 0 1-1.75-.61l-.77-59.48a2.74 2.74 0 0 0-2.74-2.7h-38.6a2.74 2.74 0 0 0-2.75 2.7zm308.56-.04 4.69 27.17a3.21 3.21 0 0 0 3.16 2.66h39.5a2.22 2.22 0 0 0 2.18-2.65l-5.44-27.2a3.3 3.3 0 0 0-3.23-2.65h-38.61a2.28 2.28 0 0 0-2.25 2.67Zm66.1-.02 27.73 129.98a3.34 3.34 0 0 0 3.27 2.65h42.2a2.13 2.13 0 0 0 2.07-2.63L915.23 68.63a9.14 9.14 0 0 0-2.6-4.5l-24.55-23.32a6.78 6.78 0 0 0-4.67-1.87H866.8a2.19 2.19 0 0 0-2.14 2.65zm66.1-.02 32.97 130.03a3.48 3.48 0 0 0 3.37 2.62h42.2a2.05 2.05 0 0 0 1.98-2.6L982.44 68.6a9.46 9.46 0 0 0-2.73-4.43l-25.6-23.4a6.97 6.97 0 0 0-4.7-1.83H932.8a2.1 2.1 0 0 0-2.04 2.63zm-835.5 2.82h38.77a2.16 2.16 0 0 1 2.11 2.64l-6.15 27.16a3.39 3.39 0 0 1-3.3 2.64H87.06A2.1 2.1 0 0 1 85 74.21L91.88 47a3.47 3.47 0 0 1 3.37-2.62Zm101.17 35.1-17.19 92.07a2.25 2.25 0 0 0 2.21 2.66h42.2a3.17 3.17 0 0 0 3.13-2.67l9.5-59.6a3.17 3.17 0 0 1 3.14-2.67h40.5a3.1 3.1 0 0 0 3.07-2.69l3.62-27.08a2.37 2.37 0 0 0-2.35-2.68h-39.6a3.17 3.17 0 0 0-3.14 2.67l-3.48 21.72a1.07 1.07 0 0 1-1.94.42l-15.16-22.56a5.08 5.08 0 0 0-4.21-2.25h-17.1a3.26 3.26 0 0 0-3.2 2.66zm112.67.03-11.03 92.01a2.4 2.4 0 0 0 2.38 2.69h42.2a2.97 2.97 0 0 0 2.96-2.7l6.1-64.94a7.07 7.07 0 0 0-1.36-4.87l-16.8-22.7a5.37 5.37 0 0 0-4.32-2.18h-17.1a3.05 3.05 0 0 0-3.03 2.69zm88.54-.69L376.6 101.9a7.9 7.9 0 0 0-2.03 4.7l-3.01 37.88a6.83 6.83 0 0 0 1.48 4.8l18.28 22.84a5.63 5.63 0 0 0 4.4 2.1h65.97a2.78 2.78 0 0 0 2.78-2.7l.75-27.03a2.63 2.63 0 0 0-2.63-2.7h-41.35a2.56 2.56 0 0 1-2.56-2.7l1.45-27.1a2.85 2.85 0 0 1 2.85-2.7h40.46a2.78 2.78 0 0 0 2.77-2.7l.7-27.04a2.64 2.64 0 0 0-2.63-2.7h-62.12a6.13 6.13 0 0 0-4.53 2zm407.48.67 15.98 92.05a3.22 3.22 0 0 0 3.17 2.67h42.2a2.22 2.22 0 0 0 2.18-2.65l-13-65.03a8.68 8.68 0 0 0-2.47-4.53l-24.07-23.3a6.69 6.69 0 0 0-4.65-1.88h-17.1a2.28 2.28 0 0 0-2.24 2.67zM78.8 109.28h40.46a2.16 2.16 0 0 1 2.1 2.64l-6.14 27.22a3.39 3.39 0 0 1-3.3 2.63H70.57a2.1 2.1 0 0 1-2.04-2.62l6.91-27.25a3.48 3.48 0 0 1 3.37-2.62z"/>
    <path fill="url(#b)" d="m.84 6.7 1.37.89a.34.34 16.49 0 0 .18.05h3.76a.04.04 110.24 0 0 .03-.06L5.16 6.7a.27.27 20.24 0 0-.18-.07H.85a.03.03 106.49 0 0-.01.06zm6.04.01.88.86a.25.25 22.14 0 0 .18.07h1.38a.05.05 114.34 0 0 .03-.07l-.74-.85a.22.22 24.34 0 0-.17-.08H6.91a.04.04 112.14 0 0-.03.07zm4.31.01.55.84a.19.19 28.28 0 0 .16.08h1.38a.06.06 121.4 0 0 .06-.09l-.43-.82a.16.16 31.4 0 0-.14-.09h-1.53a.05.05 118.28 0 0-.05.08zm3.44.01.3.82a.14.14 34.92 0 0 .14.1h2.17a.09.09 130.83 0 0 .09-.1l-.12-.81a.12.12 40.83 0 0-.12-.1h-2.4a.07.07 124.92 0 0-.06.1zm3.44.01.06.8a.1.1 42.88 0 0 .1.1h.6a.1.1 135 0 0 .1-.1v-.8a.1.1 45 0 0-.1-.1h-.67a.1.1 132.88 0 0-.1.1zm1.71 0-.06.8a.1.1 47.07 0 0 .1.1h1.38a.12.12 141.22 0 0 .12-.1l.18-.8a.08.08 51.22 0 0-.08-.1H19.9a.1.1 137.07 0 0-.1.1zm4.3 0-.36.8a.07.07 56.9 0 0 .06.1h1.38a.17.17 150.23 0 0 .15-.09l.49-.82a.06.06 60.23 0 0-.05-.09h-1.53a.15.15 146.9 0 0-.14.1Zm3.44-.02-.62.84a.05.05 63.15 0 0 .04.08h1.39a.22.22 155.69 0 0 .16-.07l.75-.85a.05.05 65.69 0 0-.03-.08h-1.53a.2.2 153.15 0 0-.16.08zm2.59 0-.82.85a.04.04 66.81 0 0 .03.07h1.39a.26.26 158.86 0 0 .17-.07l.95-.86a.04.04 68.86 0 0-.03-.07h-1.53a.23.23 156.81 0 0-.16.07zm2.58-.01-1.02.87a.04.04 69.79 0 0 .03.06h1.38a.3.3 161.43 0 0 .18-.06l1.16-.88a.03.03 71.43 0 0-.02-.06h-1.53a.27.27 159.79 0 0-.18.07zm2.6-.01-1.24.88a.03.03 72.16 0 0 .02.06h1.39a.34.34 163.5 0 0 .18-.05l1.37-.9a.03.03 73.5 0 0-.01-.05h-1.53a.31.31 162.16 0 0-.19.06z" transform="scale(27.0549)"/>
  </g>
  <path fill="#fff" stroke="#fff" stroke-width=".6" d="M1020.28 166.96v1.42h2.98v8.01h1.59v-8h3v-1.43zm9.34 0v9.43h1.5v-7.05l2.98 6.07h1.04l2.98-6.07.01 7.05h1.47v-9.43h-1.87l-3.1 6.26-3.12-6.26z" aria-label="TM" font-family="Montserrat" font-size="13.48" font-weight="400" style="line-height:1.25;-inkscape-font-specification:Montserrat" transform="matrix(1.00394 0 0 .99607 1 0)"/>
</svg>