<svg xmlns="http://www.w3.org/2000/svg" viewBox="0 0 24 24"><path fill="none" stroke="#FFF" stroke-linecap="round" stroke-linejoin="round" stroke-width="2" d="m13 15 8 8m0-8-8 8"/><path d="M9 0a3 3 0 0 0-3 3v2a3 3 0 0 0 3 3h2a3 3 0 0 0 3-3V3a3 3 0 0 0-3-3Zm0 2h2c.56 0 1 .44 1 1v2c0 .56-.44 1-1 1H9c-.56 0-1-.44-1-1V3c0-.56.44-1 1-1ZM2 7a1 1 0 0 0-1 1v7a1 1 0 0 0 1 1h3v6a1 1 0 0 0 1 1h3.25a1 1 0 0 0 .75-.34 1 1 0 0 0 .75.34h.26a2 2 0 0 1 .58-1.41l.58-.59H11v-4a1 1 0 1 0-2 0v4H7v-6a1 1 0 0 0-1-1H3V9h4a1 1 0 0 0 .66-.25A4.02 4.02 0 0 1 5.56 7Zm12.44 0a4.02 4.02 0 0 1-2.1 1.75A1 1 0 0 0 13 9h4v5h-2.17l2 2h.34L19 14.17V8a1 1 0 0 0-1-1Z" fill="#FFF"/></svg>