<svg xmlns="http://www.w3.org/2000/svg" viewBox="0 0 24 24"><path fill="none" stroke="#FFF" stroke-width="2" d="M17 11a6 6 0 0 0 0 12c1.5 0 2-1.25 2-2 0-1.25.75-2 2-2 .75 0 2-.5 2-2a6 6 0 0 0-6-6z"/><path d="M13.04 17a1 1 0 1 0 2 0 1 1 0 0 0-2 0zm5.52-3.6a1 1 0 1 0-.04 2 1 1 0 0 0 .04-2Zm-3 5.2a1 1 0 1 0-.04 2 1 1 0 0 0 .04-2zm-.52-5.06a1 1 0 1 0 1 1.73 1 1 0 0 0-1-1.73Z" fill="#FFF"/><path d="M1 7a1 1 0 0 0-1 1v7a1 1 0 0 0 1 1h3v6a1 1 0 0 0 1 1h3.25a1 1 0 0 0 .75-.34 1 1 0 0 0 .75.34h1.99a8.08 8.08 0 0 1-1.65-2H10v-.14A7.92 7.92 0 0 1 9.07 16 1 1 0 0 0 9 16a1 1 0 0 0-1 1v4H6v-6a1 1 0 0 0-1-1H2V9h4a1 1 0 0 0 .66-.25A4.02 4.02 0 0 1 4.56 7Zm12.44 0a4.02 4.02 0 0 1-2.1 1.75A1 1 0 0 0 12 9h4v.07a7.94 7.94 0 0 1 2 0V8a1 1 0 0 0-1-1ZM8 0a3 3 0 0 0-3 3v2a3 3 0 0 0 3 3h2a3 3 0 0 0 3-3V3a3 3 0 0 0-3-3Zm0 2h2c.56 0 1 .44 1 1v2c0 .56-.44 1-1 1H8c-.56 0-1-.44-1-1V3c0-.56.44-1 1-1Z" fill="#FFF"/></svg>