<svg xmlns="http://www.w3.org/2000/svg" viewBox="0 0 24 24"><path fill="none" stroke="#FFF" stroke-linecap="round" stroke-linejoin="round" stroke-width="2" d="M17 22s5-3 5-6.5c0-1.38-1-2.5-2.5-2.5-2 0-2.5 2-2.5 2s-.5-2-2.5-2C13 13 12 14.12 12 15.5c0 3.5 5 6.5 5 6.5z"/><path d="M2 7a1 1 0 0 0-1 1v7a1 1 0 0 0 1 1h3v6a1 1 0 0 0 1 1h3.25a1 1 0 0 0 .75-.34 1 1 0 0 0 .75.34H14a1 1 0 0 0 .63-.22 16.7 16.7 0 0 1-1.5-1.27c-.17-.15-.33-.34-.5-.51H11v-2.04a6.8 6.8 0 0 1-.96-2.96 1 1 0 0 0-.04 0 1 1 0 0 0-1 1v4H7v-6a1 1 0 0 0-1-1H3V9h4a1 1 0 0 0 .66-.25A4.02 4.02 0 0 1 5.56 7Zm12.44 0a4.02 4.02 0 0 1-2.1 1.75A1 1 0 0 0 13 9h4v2.85a4.5 4.5 0 0 1 2-.8V8a1 1 0 0 0-1-1ZM9 0a3 3 0 0 0-3 3v2a3 3 0 0 0 3 3h2a3 3 0 0 0 3-3V3a3 3 0 0 0-3-3Zm0 2h2c.56 0 1 .44 1 1v2c0 .56-.44 1-1 1H9c-.56 0-1-.44-1-1V3c0-.56.44-1 1-1Z" fill="#FFF"/></svg>