<svg xmlns="http://www.w3.org/2000/svg" viewBox="0 0 16 16"><path fill="none" stroke="#f39b00" stroke-linejoin="round" stroke-width="1.5" d="M4 7.75a1.25 1.25 0 1 0 0 2.5h2.22L6 12a1.98 1.98 0 0 0 2 2.25A1.98 1.98 0 0 0 10 12l-.22-1.75H12a1.25 1.25 0 1 0 0-2.5z"/><path fill="#f39b00" d="M3.25 1a.75.75 0 0 0-.74.87l1.2 5.92h.99L4.09 2.5h7.82l-.6 5.29h.98l1.2-5.92a.75.75 0 0 0-.74-.87Z"/><path fill="#f39b00" d="m19.75 12.5.5 2.5c.1.5.4.5.5 0l.5-2.5zm-3 0 .5 2.5c.1.5.4.5.5 0l.5-2.5z" transform="translate(-11 -10)"/></svg>